<svg width="48" height="49" viewBox="0 0 48 49" fill="none" xmlns="http://www.w3.org/2000/svg">
<path d="M24 6.72169C14.92 6.72169 6.68 10.2817 0.58 16.0617C0.22 16.4217 0 16.9217 0 17.4817C0 18.0417 0.22 18.5417 0.58 18.9017L5.54 23.8617C5.91462 24.2321 6.41912 24.4415 6.94593 24.4452C7.47274 24.449 7.98016 24.2467 8.36 23.8817C9.94 22.4017 11.74 21.1617 13.68 20.1817C14.34 19.8617 14.8 19.1817 14.8 18.3817V12.1817C17.7 11.2217 20.78 10.7217 24 10.7217C27.18 10.7217 30.28 11.2217 33.18 12.1617V18.3617C33.18 19.1417 33.64 19.8417 34.3 20.1617C36.26 21.1417 38 22.4017 39.64 23.8617C40 24.2217 40.5 24.4217 41 24.4217C41.6 24.4217 42.1 24.2017 42.46 23.8417L47.42 18.8817C47.78 18.5217 48 18.0217 48 17.4617C48 16.9017 47.76 16.4217 47.4 16.0617C41.0879 10.0604 32.7097 6.71629 24 6.72169Z" fill="#2EB6CC"/>
<path fill-rule="evenodd" clip-rule="evenodd" d="M18 14.7217V20.7217C18 20.7217 6 30.7217 6 36.7217V44.7217H42V36.7217C42 30.7217 30 20.7217 30 20.7217V14.7217H26V18.7217H22V14.7217H18ZM24 24.7217C26.1217 24.7217 28.1566 25.5645 29.6569 27.0648C31.1571 28.5651 32 30.6 32 32.7217C32 34.8434 31.1571 36.8782 29.6569 38.3785C28.1566 39.8788 26.1217 40.7217 24 40.7217C21.8783 40.7217 19.8434 39.8788 18.3431 38.3785C16.8429 36.8782 16 34.8434 16 32.7217C16 30.6 16.8429 28.5651 18.3431 27.0648C19.8434 25.5645 21.8783 24.7217 24 24.7217Z" fill="white"/>
<path d="M24 27.7217C22.6739 27.7217 21.4021 28.2485 20.4645 29.1862C19.5268 30.1238 19 31.3956 19 32.7217C19 34.0478 19.5268 35.3195 20.4645 36.2572C21.4021 37.1949 22.6739 37.7217 24 37.7217C25.3261 37.7217 26.5979 37.1949 27.5355 36.2572C28.4732 35.3195 29 34.0478 29 32.7217C29 31.3956 28.4732 30.1238 27.5355 29.1862C26.5979 28.2485 25.3261 27.7217 24 27.7217Z" fill="#2EB6CC"/>
</svg>
