<svg width="48" height="49" viewBox="0 0 48 49" fill="none" xmlns="http://www.w3.org/2000/svg">
<g clip-path="url(#clip0_16_158)">
<path d="M42.6667 18.1617V36.335L32.8533 26.5217L30.9733 28.4017L40.6133 38.055H7.54666L16.88 28.4017L14.96 26.5483L5.33332 36.5083V13.415L21.9067 29.9083C22.4063 30.405 23.0822 30.6838 23.7867 30.6838C24.4912 30.6838 25.167 30.405 25.6667 29.9083L37.44 18.2017C36.5004 17.9565 35.602 17.5746 34.7733 17.0683L23.76 28.015L7.07999 11.3883H30.4133C30.1555 10.5223 30.0165 9.62518 30 8.72168H5.33332C4.62608 8.72168 3.9478 9.00263 3.4477 9.50273C2.94761 10.0028 2.66666 10.6811 2.66666 11.3883V38.055C2.66666 38.7623 2.94761 39.4405 3.4477 39.9406C3.9478 40.4407 4.62608 40.7217 5.33332 40.7217H42.6667C43.3739 40.7217 44.0522 40.4407 44.5523 39.9406C45.0524 39.4405 45.3333 38.7623 45.3333 38.055V16.9883C44.5069 17.5084 43.6084 17.9038 42.6667 18.1617Z" fill="white"/>
<path d="M40 15.2015C43.6819 15.2015 46.6667 12.2167 46.6667 8.53483C46.6667 4.85293 43.6819 1.86816 40 1.86816C36.3181 1.86816 33.3333 4.85293 33.3333 8.53483C33.3333 12.2167 36.3181 15.2015 40 15.2015Z" fill="#2EB6CC"/>
</g>
<defs>
<clipPath id="clip0_16_158">
<rect width="48" height="48" fill="white" transform="translate(0 0.72168)"/>
</clipPath>
</defs>
</svg>
