<svg width="48" height="49" viewBox="0 0 48 49" fill="none" xmlns="http://www.w3.org/2000/svg">
<path fill-rule="evenodd" clip-rule="evenodd" d="M24 44.2217C25.122 44.2217 29.508 41.0177 33.003 37.0427C37.662 31.7477 40.5 25.8377 40.5 20.2217C40.5 11.3327 33.195 5.22168 24 5.22168C14.805 5.22168 7.5 11.3327 7.5 20.2217C7.5 25.8617 10.338 31.7717 14.997 37.0607C18.489 41.0267 22.875 44.2217 24 44.2217ZM17.2118 27.6099C19.0121 29.4103 21.4539 30.4217 24 30.4217C26.5461 30.4217 28.9879 29.4103 30.7882 27.6099C32.5886 25.8096 33.6 23.3678 33.6 20.8217C33.6 18.2756 32.5886 15.8338 30.7882 14.0335C28.9879 12.2331 26.5461 11.2217 24 11.2217C21.4539 11.2217 19.0121 12.2331 17.2118 14.0335C15.4114 15.8338 14.4 18.2756 14.4 20.8217C14.4 23.3678 15.4114 25.8096 17.2118 27.6099Z" fill="white"/>
<path d="M24 23.8217C24.7957 23.8217 25.5587 23.5056 26.1213 22.943C26.6839 22.3804 27 21.6173 27 20.8217C27 20.026 26.6839 19.263 26.1213 18.7004C25.5587 18.1378 24.7957 17.8217 24 17.8217C23.2044 17.8217 22.4413 18.1378 21.8787 18.7004C21.3161 19.263 21 20.026 21 20.8217C21 21.6173 21.3161 22.3804 21.8787 22.943C22.4413 23.5056 23.2044 23.8217 24 23.8217Z" fill="#2EB6CC"/>
</svg>
