<svg width="57" height="58" viewBox="0 0 57 58" fill="none" xmlns="http://www.w3.org/2000/svg">
<g filter="url(#filter0_d_1_2640)">
<mask id="path-1-outside-1_1_2640" maskUnits="userSpaceOnUse" x="4" y="0" width="49" height="50" fill="black">
<rect fill="white" x="4" width="49" height="50"/>
<path d="M28.4016 15.288C26.481 15.2891 24.6038 15.8595 23.0074 16.9274C21.411 17.9952 20.167 19.5123 19.4328 21.2871C18.6985 23.0618 18.5069 25.0144 18.8823 26.8979C19.2576 28.7815 20.183 30.5115 21.5415 31.8693C22.8999 33.227 24.6304 34.1514 26.5142 34.5257C28.398 34.9 30.3505 34.7074 32.1248 33.9722C33.8991 33.2369 35.4156 31.9921 36.4826 30.3951C37.5495 28.7981 38.119 26.9206 38.119 25C38.119 23.7241 37.8676 22.4608 37.3792 21.2821C36.8908 20.1035 36.1749 19.0326 35.2725 18.1307C34.3701 17.2288 33.2988 16.5135 32.1199 16.0257C30.941 15.538 29.6775 15.2873 28.4016 15.288ZM28.4016 15.7573H28.695C28.695 15.8373 28.6043 15.896 28.487 15.992C28.3696 16.088 27.9003 16.648 27.735 16.5627C27.5696 16.4773 27.735 16.4027 27.6817 16.3173C27.6283 16.232 27.575 16.2 27.5376 16.136C27.4712 16.0319 27.4124 15.9232 27.3616 15.8107C27.7071 15.7741 28.0543 15.7563 28.4016 15.7573ZM29.6176 26.9573C29.3301 27.339 29.1365 27.7829 29.0523 28.2533C29.0096 28.52 29.1163 28.7226 28.855 28.92C28.5936 29.1173 28.4496 29.0693 28.3216 29.2986C28.1936 29.528 28.215 29.7733 28.0923 29.9653C27.953 30.1444 27.7977 30.3104 27.6283 30.4613C27.5592 30.55 27.4785 30.6289 27.3883 30.696C27.2283 30.7813 27.1483 30.6533 27.1537 30.9146C27.159 31.176 27.2763 31.0746 27.1537 31.2666C27.0737 31.368 26.967 31.4533 26.8923 31.5493C26.8001 31.6592 26.7371 31.7907 26.7091 31.9314C26.6811 32.0722 26.6891 32.2178 26.7323 32.3546C26.7643 32.52 26.7323 32.6746 26.7323 32.8293C26.7323 32.984 26.9297 33.1333 26.8977 33.3039C26.4497 33.3786 26.135 32.8346 26.055 32.472C25.9537 31.992 25.8097 31.5333 25.735 31.0373C25.6094 30.5757 25.5202 30.1049 25.4683 29.6293C25.507 29.3988 25.4975 29.1628 25.4406 28.9361C25.3837 28.7094 25.2806 28.4969 25.1377 28.312C24.8657 28.04 24.487 27.9226 24.3217 27.5706C24.2478 27.3514 24.2013 27.1239 24.183 26.8933C24.119 26.632 23.9163 26.568 23.7297 26.424C23.5704 26.2649 23.4656 26.0596 23.4302 25.8373C23.3947 25.6151 23.4305 25.3873 23.5323 25.1866C23.639 24.92 24.2097 24.1573 23.959 23.8586C23.8043 23.688 23.5377 23.912 23.3777 23.8586C23.2321 23.7818 23.0946 23.6907 22.967 23.5866C22.935 23.3146 22.7857 23.2773 22.5457 23.224C22.5116 23.0939 22.4378 22.9778 22.3345 22.8917C22.2313 22.8057 22.1037 22.754 21.9697 22.744C21.6283 22.7066 21.5697 22.536 21.3937 22.28C21.2177 22.024 21.2443 21.8693 21.287 21.496C21.3511 21.1702 21.3511 20.8351 21.287 20.5093C20.9723 20.5466 21.1377 21.2133 20.7537 21.1013C20.7217 20.7866 20.8977 20.6266 20.9883 20.36C21.079 20.0933 21.031 19.8853 21.0843 19.6773C21.1424 19.4489 21.2398 19.2323 21.3723 19.0373C21.5163 18.8453 21.7457 18.7653 21.9057 18.5573C21.944 18.4948 21.9761 18.4287 22.0017 18.36C23.2879 17.1142 24.9098 16.2708 26.6683 15.9333C26.7005 15.9653 26.7308 15.9991 26.759 16.0347C26.823 16.1627 26.903 16.2427 26.727 16.3707C26.423 16.6053 26.247 16.2053 26.0017 16.2533C25.7563 16.3013 25.639 16.6053 25.3457 16.6427C25.0523 16.68 24.6897 16.7067 24.6897 17.0533C24.7844 17.0877 24.8829 17.1109 24.983 17.1227C25.0098 17.269 25.0098 17.419 24.983 17.5653C25.335 17.624 25.2443 17.4587 25.3403 17.24C25.4363 17.0213 25.671 17.0587 25.799 16.888C25.927 16.7173 25.8737 16.4773 26.1723 16.5893C26.3483 16.6587 26.391 16.8293 26.6257 16.7973C26.6578 16.8906 26.6578 16.992 26.6257 17.0853C26.9083 17.0853 26.9403 17.2293 27.0737 17.4267C27.1483 17.544 27.3883 17.8907 27.0417 17.9013C26.8603 17.9013 26.935 17.7947 26.807 17.7093C26.679 17.624 26.7003 17.672 26.5403 17.7093C26.3803 17.7467 26.007 17.7093 26.231 17.9493C26.455 18.1893 26.6577 18.1787 26.295 18.328C26.215 18.36 26.071 18.4293 25.9963 18.4507C25.815 18.488 25.8843 18.4027 25.7457 18.3973C25.367 18.3973 25.7083 18.6907 25.447 18.8613C25.2763 18.9733 25.0897 18.9627 24.9137 19.112C24.7377 19.2613 24.6097 19.4 24.4763 19.5493C24.343 19.6987 24.2843 19.9546 24.151 20.1467C24.0177 20.3386 23.847 20.3386 23.863 20.632C23.863 20.808 23.943 21.1653 23.6817 21.1973C23.6817 20.9786 23.7723 20.7973 23.6817 20.6053C23.6436 20.5194 23.5775 20.4489 23.4942 20.4053C23.4109 20.3617 23.3153 20.3476 23.223 20.3653C22.8516 20.4813 22.5182 20.695 22.2577 20.984C22.1083 21.1973 21.847 21.8853 22.0177 22.1306C22.279 22.504 22.615 21.64 22.919 21.656C23.0737 21.9813 22.711 22.1893 22.7483 22.4826C23.047 22.584 23.3137 22.616 23.1643 23.016L23.223 23.1386C23.223 23.5066 23.271 23.672 23.6763 23.5866C23.9356 23.5367 24.1845 23.4429 24.4123 23.3093C24.5192 23.2293 24.6357 23.163 24.759 23.112C24.9083 23.112 25.063 23.2026 25.207 23.2186C25.3453 23.2147 25.4829 23.1968 25.6177 23.1653C25.7883 23.1653 25.9003 23.256 26.0603 23.2613C26.1243 23.416 26.3803 23.5653 26.5137 23.6506C26.6173 23.7223 26.7281 23.7831 26.8443 23.832C26.9457 23.8693 27.1217 23.88 27.2017 23.9226C27.2979 24.0083 27.3748 24.1135 27.4273 24.2312C27.4797 24.3489 27.5064 24.4764 27.5056 24.6053C27.5056 24.7813 27.2657 25.1386 27.3457 25.272C27.495 25.5066 27.7403 25.1386 27.9163 25.1386C28.0923 25.1386 28.023 25.2026 28.135 25.2346C28.247 25.2666 28.3323 25.2346 28.4656 25.2346C28.6791 25.2997 28.8876 25.3799 29.0896 25.4746C29.3723 25.5493 29.4843 25.4746 29.6976 25.704C30.1243 26.12 29.9696 26.4986 29.6176 26.9466V26.9573ZM37.6176 25.736C37.5667 25.9696 37.5328 26.2067 37.5163 26.4453C37.5133 26.4968 37.5133 26.5485 37.5163 26.6C37.4683 26.8826 37.4043 27.1333 37.3296 27.432C37.2698 27.5408 37.2164 27.653 37.1696 27.768C36.9652 28.1849 36.7243 28.5829 36.4496 28.9573C36.2444 29.3998 35.9648 29.8039 35.623 30.152C35.4256 30.3013 35.2603 30.4133 35.0896 30.216C35.0144 30.1138 34.9645 29.9953 34.9441 29.8701C34.9237 29.7449 34.9334 29.6167 34.9723 29.496C35.047 29.256 35.2123 29.048 35.2763 28.808C35.326 28.5615 35.3599 28.3121 35.3776 28.0613C35.373 27.8194 35.3462 27.5784 35.2976 27.3413C35.2976 27.0746 35.4523 26.8773 35.5056 26.6213C35.5723 26.3629 35.6257 26.1012 35.6656 25.8373C35.6919 25.721 35.6876 25.6 35.653 25.4859C35.6184 25.3718 35.5547 25.2687 35.4683 25.1866C35.3863 25.0937 35.3257 24.984 35.2906 24.8651C35.2556 24.7463 35.2471 24.6212 35.2656 24.4986C35.3083 24.3013 35.5056 23.9653 35.3243 23.8106C35.1056 24.0133 34.9403 23.7733 34.7483 23.688C34.5563 23.6026 34.4816 23.7413 34.2576 23.848C34.0545 23.9294 33.8436 23.9901 33.6283 24.0293C33.5279 24.0552 33.4224 24.0535 33.3229 24.0244C33.2234 23.9953 33.1336 23.9399 33.063 23.864C32.7805 23.5645 32.5152 23.2493 32.2683 22.92C32.2138 22.82 32.1657 22.7167 32.1243 22.6106C32.0656 22.5093 31.9216 22.44 31.879 22.3493C31.7776 22.152 32.0336 21.896 32.0656 21.656C32.119 21.224 31.7296 20.6693 31.9216 20.2853C32.0016 20.12 32.263 20.0293 32.3056 19.8266C32.3483 19.624 32.199 19.6507 32.3056 19.496C32.4123 19.3413 32.4496 19.4053 32.5296 19.3573C32.8283 19.1867 33.5963 18.7547 33.9003 19.0213C33.9856 19.0907 33.9643 19.2133 34.055 19.2826C34.1456 19.352 34.2896 19.2826 34.3803 19.3573C34.567 19.464 34.6683 19.6347 34.8816 19.704C34.9296 19.3253 35.8096 19.9013 35.4523 19.1707C35.3834 19.0189 35.27 18.8918 35.1271 18.806C34.9842 18.7203 34.8186 18.6801 34.6523 18.6907C34.6523 18.6907 34.7003 18.7973 34.743 18.8347C34.4496 19.0693 34.4603 18.808 34.343 18.6267C34.2104 18.475 34.0389 18.3625 33.847 18.3013C33.847 18.4027 33.943 18.4827 33.927 18.5893C33.7456 18.5893 33.6656 18.376 33.5323 18.2747C33.4758 18.2176 33.4071 18.1741 33.3313 18.1473C33.2556 18.1205 33.1748 18.1112 33.095 18.12C32.6416 18.1733 32.9403 18.7227 32.5616 18.8613C32.4752 18.8882 32.3839 18.895 32.2944 18.8814C32.205 18.8677 32.1198 18.834 32.0454 18.7826C31.9709 18.7312 31.909 18.6636 31.8645 18.5849C31.82 18.5061 31.7939 18.4183 31.7883 18.328C31.7883 18.072 32.0443 18.2 32.0923 17.9973C32.1403 17.7947 31.9056 17.7253 31.7936 17.6613C31.9963 17.208 31.063 17.272 31.047 16.8613C31.047 16.584 31.3723 16.7173 31.4843 16.8613C31.5963 17.0053 31.7456 17.3093 31.9056 17.032C32.0656 16.7547 31.6603 16.7387 31.527 16.696C31.303 16.616 31.223 16.4613 31.095 16.2853C31.0589 16.2316 31.0197 16.1799 30.9776 16.1307C32.8992 16.6889 34.5881 17.8549 35.791 19.454C36.9939 21.0531 37.646 22.999 37.6496 25C37.6496 25.2453 37.6496 25.4853 37.6176 25.7253V25.736ZM51.7563 16.7013C51.6057 15.3511 51.1713 14.0479 50.4816 12.8773C49.7691 11.6914 48.8173 10.667 47.6869 9.86934C46.5567 9.07126 45.31 8.45242 43.9909 8.03468C43.1308 7.76043 42.2521 7.54833 41.3616 7.40001C41.2795 7.39002 41.1961 7.39786 41.1173 7.42298C41.0384 7.4481 40.9659 7.48992 40.9046 7.5456C40.8434 7.60127 40.7949 7.66949 40.7624 7.7456C40.7299 7.82172 40.7141 7.90394 40.7163 7.98668V8.04001C40.6994 8.12528 40.7 8.21306 40.7179 8.29811C40.7358 8.38315 40.7707 8.4637 40.8205 8.53493C40.8703 8.60615 40.934 8.66658 41.0077 8.71259C41.0815 8.7586 41.1637 8.78924 41.2496 8.80268C42.035 8.92304 42.8105 9.10131 43.5696 9.33601C44.748 9.69496 45.8635 10.2347 46.8763 10.936C47.8584 11.6237 48.6927 12.5015 49.3296 13.5173C50.5328 15.6056 50.8861 18.0769 50.3163 20.4186C50.0707 21.5927 49.6951 22.7358 49.1963 23.8266C48.7465 23.0058 48.2496 22.2116 47.7083 21.448C45.9131 18.9715 43.7825 16.7566 41.3776 14.8667C40.8657 13.1849 40.2017 11.5532 39.3936 9.99201C39.3955 9.97785 39.3955 9.9635 39.3936 9.94934C39.3936 9.94934 39.303 9.94934 39.2123 10.024L39.0416 10.1253C38.9577 10.1727 38.8704 10.2137 38.7803 10.248C38.631 10.312 38.5083 10.36 38.519 10.376C38.5296 10.392 38.519 10.376 38.519 10.4027C39.0521 11.4823 39.5135 12.5958 39.9003 13.736C37.3542 11.8912 34.6013 10.3501 31.6976 9.14401C32.4123 8.99468 33.127 8.86134 33.831 8.76534C34.199 8.71201 34.2096 8.55734 33.959 8.28001L33.8203 8.09868C33.623 7.78401 33.3563 7.49068 32.983 7.56535C31.8115 7.71875 30.6529 7.95761 29.5163 8.28001C26.7634 7.29728 23.8954 6.67347 20.983 6.42402C20.0284 6.35193 19.0706 6.33057 18.1137 6.36002C18.737 5.62038 19.4241 4.93687 20.167 4.31736C21.1426 3.49625 22.2402 2.83228 23.4203 2.34936C24.6012 1.86493 25.8667 1.62017 27.143 1.62933C28.4194 1.63848 29.6812 1.90137 30.855 2.40269C32.0205 2.90095 33.1003 3.57947 34.055 4.41336C34.3856 4.69602 34.7056 5.00002 35.0096 5.30935C35.3136 5.61869 35.6016 5.66669 35.7883 5.52802C35.975 5.38935 35.9323 5.08002 35.6656 4.81335C35.3266 4.46869 34.9706 4.14117 34.599 3.83202C33.5528 2.9667 32.3777 2.2703 31.1163 1.76803C29.8528 1.25202 28.4997 0.991079 27.135 1.00023C25.7702 1.00939 24.4208 1.28845 23.1643 1.82136C21.9343 2.35146 20.7951 3.07133 19.7883 3.95469C18.9306 4.69727 18.1482 5.52259 17.4523 6.41868C15.9195 6.49261 14.401 6.75046 12.9297 7.18668C11.6187 7.58521 10.3773 8.1843 9.24969 8.96268C8.11255 9.74451 7.14854 10.7521 6.4177 11.9227C5.70543 13.0837 5.25074 14.3841 5.08437 15.736C4.927 17.0617 4.99008 18.4042 5.27104 19.7093C5.44864 20.5476 5.68933 21.3713 5.99104 22.1733C6.02239 22.2519 6.07036 22.3227 6.13166 22.381C6.19296 22.4393 6.26614 22.4836 6.34618 22.511C6.42622 22.5383 6.51122 22.5481 6.59537 22.5395C6.67952 22.5309 6.76082 22.5042 6.8337 22.4613L6.93503 22.4186C7.01634 22.3937 7.09163 22.3522 7.15618 22.2968C7.22073 22.2414 7.27316 22.1732 7.3102 22.0967C7.34724 22.0201 7.36809 21.9367 7.37144 21.8517C7.3748 21.7667 7.36059 21.6819 7.3297 21.6026C7.05562 20.8988 6.83631 20.1749 6.6737 19.4373C6.41606 18.2754 6.35119 17.079 6.4817 15.896C6.62245 14.7265 7.00378 13.5989 7.6017 12.584C8.79103 10.5307 10.935 9.06934 13.319 8.28535C14.3925 7.93952 15.496 7.6949 16.615 7.55468C16.0662 8.36166 15.5658 9.20046 15.1163 10.0667C13.8527 12.5978 12.9394 15.2892 12.4017 18.0667C11.2221 19.2443 10.1511 20.526 9.20169 21.896C9.17503 21.928 9.15369 21.9653 9.12703 22.0026C9.10036 22.04 9.22836 22.1946 9.42036 22.3226L9.77236 22.5573L9.82569 22.5893C9.83657 22.5971 9.84963 22.6013 9.86303 22.6013C9.87642 22.6013 9.88948 22.5971 9.90036 22.5893V22.5573C10.5701 21.6397 11.2969 20.7651 12.0764 19.9387C11.8394 21.5531 11.7111 23.1817 11.6924 24.8133C11.6791 26.1112 11.7325 27.4089 11.8524 28.7013C11.5484 28.3653 11.2444 28.024 10.9564 27.672C10.6684 27.32 10.423 27.432 10.215 27.736L10.1404 27.8373C10.0124 27.9571 9.9318 28.1189 9.9132 28.2931C9.8946 28.4674 9.93925 28.6425 10.039 28.7866C10.706 29.5741 11.4183 30.3221 12.1724 31.0266C12.6341 34.0306 13.5438 36.9484 14.871 39.6826C15.191 40.3333 15.5483 40.9626 15.9377 41.5866C15.0905 41.4535 14.2544 41.2574 13.4364 40.9999C12.2195 40.6093 11.0701 40.0337 10.0284 39.2933C9.0149 38.5689 8.1601 37.6451 7.51637 36.5786C6.89028 35.5215 6.4958 34.3436 6.35903 33.1226C6.2296 31.9026 6.30531 30.6696 6.58303 29.4746C6.66303 29.112 6.75903 28.7546 6.8657 28.408C6.97237 28.0613 6.9937 27.7306 6.8657 27.688L6.67903 27.592L6.48703 27.4746C6.3857 27.4053 6.20437 27.6293 6.0977 28.008C5.99104 28.3866 5.85237 28.8933 5.7617 29.3413C5.49875 30.6167 5.44829 31.9268 5.61237 33.2186C5.78095 34.5203 6.22063 35.7721 6.90303 36.8933C7.6096 38.0262 8.53853 39.0041 9.63369 39.7679C10.7376 40.5271 11.9518 41.1117 13.2337 41.5013C14.2126 41.8026 15.2153 42.0202 16.231 42.1519C17.1497 43.5807 18.2667 44.8718 19.5483 45.9866C20.5794 46.8869 21.7456 47.6194 23.0043 48.1572C24.3155 48.706 25.7216 48.9923 27.143 48.9999C28.5574 49.0057 29.9588 48.7301 31.2656 48.1893C32.5419 47.667 33.7279 46.947 34.7803 46.0559C35.4514 45.4866 36.0773 44.8661 36.6523 44.1999C36.7068 44.1387 36.7465 44.0658 36.7683 43.9868C36.79 43.9078 36.7933 43.8249 36.7778 43.7444C36.7624 43.6639 36.7286 43.5881 36.679 43.5228C36.6295 43.4575 36.5656 43.4045 36.4923 43.3679L36.407 43.3093C36.2715 43.1982 36.0985 43.1434 35.9238 43.1563C35.749 43.1692 35.586 43.2488 35.4683 43.3786C34.959 43.9498 34.4101 44.4845 33.8256 44.9786C32.8936 45.7795 31.8429 46.4309 30.711 46.9093C29.5791 47.3787 28.3682 47.6285 27.143 47.6452C24.6557 47.6136 22.2606 46.6987 20.3857 45.0639C19.3918 44.2286 18.497 43.2819 17.719 42.2426C18.8769 42.3173 20.0384 42.3173 21.1963 42.2426C24.0433 42.0264 26.8534 41.4641 29.5643 40.5679C31.2844 41.0118 33.0377 41.315 34.807 41.4746C35.1803 41.5066 35.447 41.3839 35.4256 41.2079C35.4088 41.1003 35.3999 40.9916 35.399 40.8826C35.399 40.8293 35.399 40.7759 35.399 40.7279C35.399 40.6799 35.111 40.5413 34.7376 40.4986C33.6081 40.3718 32.4864 40.1831 31.3776 39.9333C33.0536 39.295 34.6872 38.5504 36.2683 37.7039C37.4872 37.0526 38.6727 36.3406 39.8203 35.5706C39.6176 36.1626 39.399 36.7493 39.1536 37.3253C39.0096 37.6719 39.1536 37.8106 39.5216 37.7199L39.9109 37.6506C40.1098 37.622 40.2989 37.5461 40.4623 37.4291C40.6256 37.3122 40.7585 37.1577 40.8496 36.9786C41.2371 36.0707 41.5493 35.1324 41.7829 34.1733C44.2152 32.3202 46.3703 30.1292 48.1829 27.6666C48.6643 26.9984 49.1111 26.3059 49.5216 25.592C49.9181 26.5234 50.2218 27.4916 50.4283 28.4826C50.6831 29.6886 50.7372 30.9284 50.5883 32.152C50.4278 33.3702 50.0155 34.5417 49.3776 35.5919C48.7135 36.6432 47.8447 37.5501 46.8229 38.2586C45.7674 38.9874 44.6076 39.552 43.3829 39.9333C42.8496 40.0933 42.3163 40.2213 41.7829 40.3279C41.4149 40.4026 41.1323 40.5519 41.1483 40.6853C41.1536 40.7652 41.1536 40.8454 41.1483 40.9253C41.1483 40.9839 41.1483 41.0426 41.1483 41.1013C41.1483 41.1599 41.4309 41.2293 41.7936 41.1493C42.4127 41.0227 43.0236 40.8588 43.6229 40.6586C44.9051 40.2438 46.1157 39.634 47.2123 38.8506C48.286 38.0691 49.1926 37.0809 49.8789 35.9439C50.5459 34.8123 50.9674 33.5531 51.1163 32.248C51.2583 30.9645 51.1826 29.6662 50.8923 28.408C50.6352 27.2642 50.2543 26.1519 49.7563 25.0906C50.5233 23.6986 51.094 22.2071 51.4523 20.6586C51.7716 19.3654 51.8743 18.0282 51.7563 16.7013ZM15.5377 10.2693C16.0352 9.2983 16.6076 8.36749 17.2497 7.48535C18.4653 7.36403 19.6884 7.33551 20.9083 7.40001C23.3631 7.55563 25.7926 7.98678 28.151 8.68534L27.9856 8.73868C25.4487 9.5569 23.0007 10.629 20.679 11.9387C17.929 13.4526 15.3733 15.2955 13.0684 17.4267C13.5633 14.94 14.394 12.5322 15.5377 10.2693ZM21.1537 41.8373C19.8869 41.9253 18.6151 41.9092 17.351 41.7893C16.7762 40.9832 16.2577 40.1386 15.799 39.2613C14.6047 36.9556 13.7257 34.4998 13.1857 31.96C13.4204 32.168 13.6497 32.376 13.9003 32.584C15.9253 34.287 18.12 35.7775 20.4497 37.0319C23.0597 38.439 25.8156 39.5567 28.6683 40.3653C26.2324 41.159 23.709 41.6533 21.1537 41.8373ZM35.943 37.1759C34.1829 38.1598 32.3542 39.0154 30.471 39.7359C27.1966 38.8924 24.0477 37.621 21.1057 35.9546C18.0463 34.2572 15.2402 32.1387 12.7697 29.6613C12.5299 28.0612 12.3963 26.447 12.3697 24.8293C12.3556 22.9719 12.4804 21.1161 12.743 19.2773C15.2843 16.7823 18.1772 14.6728 21.3297 13.016C24.1929 11.4488 27.2379 10.2398 30.3963 9.41601C32.2278 10.0826 34.01 10.8774 35.7296 11.7947C37.2721 12.6324 38.7596 13.5676 40.1829 14.5947C41.178 17.9116 41.6601 21.3613 41.6123 24.824C41.5993 28.0529 41.1362 31.2643 40.2363 34.3653C38.8657 35.3916 37.4318 36.3303 35.943 37.1759ZM47.3189 27.1333C45.8158 29.2785 44.043 31.2215 42.0443 32.9146C42.0763 32.7653 42.103 32.6266 42.1349 32.472C42.6651 29.9595 42.9208 27.397 42.8976 24.8293C42.8679 21.7551 42.4449 18.6974 41.6389 15.7307C43.8043 17.4448 45.7228 19.4495 47.3403 21.688C47.9352 22.5384 48.4698 23.4295 48.9403 24.3546C48.4683 25.3191 47.9264 26.2478 47.3189 27.1333ZM35.4416 6.95202L36.3483 6.71735C36.7704 6.58546 37.1571 6.35932 37.479 6.05602L38.1296 5.37869C38.391 5.10669 38.6043 5.19202 38.6043 5.56535V7.10135V8.63734C38.6043 9.01068 38.343 9.17068 38.0176 8.97868L36.6843 8.22135L35.383 7.45868C35.047 7.27735 35.079 7.04802 35.4416 6.95202ZM40.0496 39.4853L39.783 40.3919C39.6843 40.8219 39.6843 41.2686 39.783 41.6986L40.0283 42.6053C40.1243 42.9679 39.943 43.1066 39.6176 42.9146L38.3003 42.1306L36.983 41.3519C36.6576 41.1599 36.663 40.8613 36.983 40.6746L38.311 39.9333L39.6496 39.1759C39.9749 38.9893 40.1829 39.1333 40.0496 39.4906V39.4853ZM5.60704 25.5333C5.2497 25.4213 5.22837 25.192 5.55904 25L6.92437 24.3066L8.28436 23.6026C8.62036 23.432 8.87636 23.6026 8.85503 23.9706L8.7857 25.5013L8.71636 27.0373C8.71636 27.4106 8.4817 27.4853 8.23103 27.208L7.60703 26.504C7.29926 26.1848 6.92123 25.9419 6.50303 25.7946L5.60704 25.5333Z"/>
</mask>
<path d="M28.4016 15.288C26.481 15.2891 24.6038 15.8595 23.0074 16.9274C21.411 17.9952 20.167 19.5123 19.4328 21.2871C18.6985 23.0618 18.5069 25.0144 18.8823 26.8979C19.2576 28.7815 20.183 30.5115 21.5415 31.8693C22.8999 33.227 24.6304 34.1514 26.5142 34.5257C28.398 34.9 30.3505 34.7074 32.1248 33.9722C33.8991 33.2369 35.4156 31.9921 36.4826 30.3951C37.5495 28.7981 38.119 26.9206 38.119 25C38.119 23.7241 37.8676 22.4608 37.3792 21.2821C36.8908 20.1035 36.1749 19.0326 35.2725 18.1307C34.3701 17.2288 33.2988 16.5135 32.1199 16.0257C30.941 15.538 29.6775 15.2873 28.4016 15.288ZM28.4016 15.7573H28.695C28.695 15.8373 28.6043 15.896 28.487 15.992C28.3696 16.088 27.9003 16.648 27.735 16.5627C27.5696 16.4773 27.735 16.4027 27.6817 16.3173C27.6283 16.232 27.575 16.2 27.5376 16.136C27.4712 16.0319 27.4124 15.9232 27.3616 15.8107C27.7071 15.7741 28.0543 15.7563 28.4016 15.7573ZM29.6176 26.9573C29.3301 27.339 29.1365 27.7829 29.0523 28.2533C29.0096 28.52 29.1163 28.7226 28.855 28.92C28.5936 29.1173 28.4496 29.0693 28.3216 29.2986C28.1936 29.528 28.215 29.7733 28.0923 29.9653C27.953 30.1444 27.7977 30.3104 27.6283 30.4613C27.5592 30.55 27.4785 30.6289 27.3883 30.696C27.2283 30.7813 27.1483 30.6533 27.1537 30.9146C27.159 31.176 27.2763 31.0746 27.1537 31.2666C27.0737 31.368 26.967 31.4533 26.8923 31.5493C26.8001 31.6592 26.7371 31.7907 26.7091 31.9314C26.6811 32.0722 26.6891 32.2178 26.7323 32.3546C26.7643 32.52 26.7323 32.6746 26.7323 32.8293C26.7323 32.984 26.9297 33.1333 26.8977 33.3039C26.4497 33.3786 26.135 32.8346 26.055 32.472C25.9537 31.992 25.8097 31.5333 25.735 31.0373C25.6094 30.5757 25.5202 30.1049 25.4683 29.6293C25.507 29.3988 25.4975 29.1628 25.4406 28.9361C25.3837 28.7094 25.2806 28.4969 25.1377 28.312C24.8657 28.04 24.487 27.9226 24.3217 27.5706C24.2478 27.3514 24.2013 27.1239 24.183 26.8933C24.119 26.632 23.9163 26.568 23.7297 26.424C23.5704 26.2649 23.4656 26.0596 23.4302 25.8373C23.3947 25.6151 23.4305 25.3873 23.5323 25.1866C23.639 24.92 24.2097 24.1573 23.959 23.8586C23.8043 23.688 23.5377 23.912 23.3777 23.8586C23.2321 23.7818 23.0946 23.6907 22.967 23.5866C22.935 23.3146 22.7857 23.2773 22.5457 23.224C22.5116 23.0939 22.4378 22.9778 22.3345 22.8917C22.2313 22.8057 22.1037 22.754 21.9697 22.744C21.6283 22.7066 21.5697 22.536 21.3937 22.28C21.2177 22.024 21.2443 21.8693 21.287 21.496C21.3511 21.1702 21.3511 20.8351 21.287 20.5093C20.9723 20.5466 21.1377 21.2133 20.7537 21.1013C20.7217 20.7866 20.8977 20.6266 20.9883 20.36C21.079 20.0933 21.031 19.8853 21.0843 19.6773C21.1424 19.4489 21.2398 19.2323 21.3723 19.0373C21.5163 18.8453 21.7457 18.7653 21.9057 18.5573C21.944 18.4948 21.9761 18.4287 22.0017 18.36C23.2879 17.1142 24.9098 16.2708 26.6683 15.9333C26.7005 15.9653 26.7308 15.9991 26.759 16.0347C26.823 16.1627 26.903 16.2427 26.727 16.3707C26.423 16.6053 26.247 16.2053 26.0017 16.2533C25.7563 16.3013 25.639 16.6053 25.3457 16.6427C25.0523 16.68 24.6897 16.7067 24.6897 17.0533C24.7844 17.0877 24.8829 17.1109 24.983 17.1227C25.0098 17.269 25.0098 17.419 24.983 17.5653C25.335 17.624 25.2443 17.4587 25.3403 17.24C25.4363 17.0213 25.671 17.0587 25.799 16.888C25.927 16.7173 25.8737 16.4773 26.1723 16.5893C26.3483 16.6587 26.391 16.8293 26.6257 16.7973C26.6578 16.8906 26.6578 16.992 26.6257 17.0853C26.9083 17.0853 26.9403 17.2293 27.0737 17.4267C27.1483 17.544 27.3883 17.8907 27.0417 17.9013C26.8603 17.9013 26.935 17.7947 26.807 17.7093C26.679 17.624 26.7003 17.672 26.5403 17.7093C26.3803 17.7467 26.007 17.7093 26.231 17.9493C26.455 18.1893 26.6577 18.1787 26.295 18.328C26.215 18.36 26.071 18.4293 25.9963 18.4507C25.815 18.488 25.8843 18.4027 25.7457 18.3973C25.367 18.3973 25.7083 18.6907 25.447 18.8613C25.2763 18.9733 25.0897 18.9627 24.9137 19.112C24.7377 19.2613 24.6097 19.4 24.4763 19.5493C24.343 19.6987 24.2843 19.9546 24.151 20.1467C24.0177 20.3386 23.847 20.3386 23.863 20.632C23.863 20.808 23.943 21.1653 23.6817 21.1973C23.6817 20.9786 23.7723 20.7973 23.6817 20.6053C23.6436 20.5194 23.5775 20.4489 23.4942 20.4053C23.4109 20.3617 23.3153 20.3476 23.223 20.3653C22.8516 20.4813 22.5182 20.695 22.2577 20.984C22.1083 21.1973 21.847 21.8853 22.0177 22.1306C22.279 22.504 22.615 21.64 22.919 21.656C23.0737 21.9813 22.711 22.1893 22.7483 22.4826C23.047 22.584 23.3137 22.616 23.1643 23.016L23.223 23.1386C23.223 23.5066 23.271 23.672 23.6763 23.5866C23.9356 23.5367 24.1845 23.4429 24.4123 23.3093C24.5192 23.2293 24.6357 23.163 24.759 23.112C24.9083 23.112 25.063 23.2026 25.207 23.2186C25.3453 23.2147 25.4829 23.1968 25.6177 23.1653C25.7883 23.1653 25.9003 23.256 26.0603 23.2613C26.1243 23.416 26.3803 23.5653 26.5137 23.6506C26.6173 23.7223 26.7281 23.7831 26.8443 23.832C26.9457 23.8693 27.1217 23.88 27.2017 23.9226C27.2979 24.0083 27.3748 24.1135 27.4273 24.2312C27.4797 24.3489 27.5064 24.4764 27.5056 24.6053C27.5056 24.7813 27.2657 25.1386 27.3457 25.272C27.495 25.5066 27.7403 25.1386 27.9163 25.1386C28.0923 25.1386 28.023 25.2026 28.135 25.2346C28.247 25.2666 28.3323 25.2346 28.4656 25.2346C28.6791 25.2997 28.8876 25.3799 29.0896 25.4746C29.3723 25.5493 29.4843 25.4746 29.6976 25.704C30.1243 26.12 29.9696 26.4986 29.6176 26.9466V26.9573ZM37.6176 25.736C37.5667 25.9696 37.5328 26.2067 37.5163 26.4453C37.5133 26.4968 37.5133 26.5485 37.5163 26.6C37.4683 26.8826 37.4043 27.1333 37.3296 27.432C37.2698 27.5408 37.2164 27.653 37.1696 27.768C36.9652 28.1849 36.7243 28.5829 36.4496 28.9573C36.2444 29.3998 35.9648 29.8039 35.623 30.152C35.4256 30.3013 35.2603 30.4133 35.0896 30.216C35.0144 30.1138 34.9645 29.9953 34.9441 29.8701C34.9237 29.7449 34.9334 29.6167 34.9723 29.496C35.047 29.256 35.2123 29.048 35.2763 28.808C35.326 28.5615 35.3599 28.3121 35.3776 28.0613C35.373 27.8194 35.3462 27.5784 35.2976 27.3413C35.2976 27.0746 35.4523 26.8773 35.5056 26.6213C35.5723 26.3629 35.6257 26.1012 35.6656 25.8373C35.6919 25.721 35.6876 25.6 35.653 25.4859C35.6184 25.3718 35.5547 25.2687 35.4683 25.1866C35.3863 25.0937 35.3257 24.984 35.2906 24.8651C35.2556 24.7463 35.2471 24.6212 35.2656 24.4986C35.3083 24.3013 35.5056 23.9653 35.3243 23.8106C35.1056 24.0133 34.9403 23.7733 34.7483 23.688C34.5563 23.6026 34.4816 23.7413 34.2576 23.848C34.0545 23.9294 33.8436 23.9901 33.6283 24.0293C33.5279 24.0552 33.4224 24.0535 33.3229 24.0244C33.2234 23.9953 33.1336 23.9399 33.063 23.864C32.7805 23.5645 32.5152 23.2493 32.2683 22.92C32.2138 22.82 32.1657 22.7167 32.1243 22.6106C32.0656 22.5093 31.9216 22.44 31.879 22.3493C31.7776 22.152 32.0336 21.896 32.0656 21.656C32.119 21.224 31.7296 20.6693 31.9216 20.2853C32.0016 20.12 32.263 20.0293 32.3056 19.8266C32.3483 19.624 32.199 19.6507 32.3056 19.496C32.4123 19.3413 32.4496 19.4053 32.5296 19.3573C32.8283 19.1867 33.5963 18.7547 33.9003 19.0213C33.9856 19.0907 33.9643 19.2133 34.055 19.2826C34.1456 19.352 34.2896 19.2826 34.3803 19.3573C34.567 19.464 34.6683 19.6347 34.8816 19.704C34.9296 19.3253 35.8096 19.9013 35.4523 19.1707C35.3834 19.0189 35.27 18.8918 35.1271 18.806C34.9842 18.7203 34.8186 18.6801 34.6523 18.6907C34.6523 18.6907 34.7003 18.7973 34.743 18.8347C34.4496 19.0693 34.4603 18.808 34.343 18.6267C34.2104 18.475 34.0389 18.3625 33.847 18.3013C33.847 18.4027 33.943 18.4827 33.927 18.5893C33.7456 18.5893 33.6656 18.376 33.5323 18.2747C33.4758 18.2176 33.4071 18.1741 33.3313 18.1473C33.2556 18.1205 33.1748 18.1112 33.095 18.12C32.6416 18.1733 32.9403 18.7227 32.5616 18.8613C32.4752 18.8882 32.3839 18.895 32.2944 18.8814C32.205 18.8677 32.1198 18.834 32.0454 18.7826C31.9709 18.7312 31.909 18.6636 31.8645 18.5849C31.82 18.5061 31.7939 18.4183 31.7883 18.328C31.7883 18.072 32.0443 18.2 32.0923 17.9973C32.1403 17.7947 31.9056 17.7253 31.7936 17.6613C31.9963 17.208 31.063 17.272 31.047 16.8613C31.047 16.584 31.3723 16.7173 31.4843 16.8613C31.5963 17.0053 31.7456 17.3093 31.9056 17.032C32.0656 16.7547 31.6603 16.7387 31.527 16.696C31.303 16.616 31.223 16.4613 31.095 16.2853C31.0589 16.2316 31.0197 16.1799 30.9776 16.1307C32.8992 16.6889 34.5881 17.8549 35.791 19.454C36.9939 21.0531 37.646 22.999 37.6496 25C37.6496 25.2453 37.6496 25.4853 37.6176 25.7253V25.736ZM51.7563 16.7013C51.6057 15.3511 51.1713 14.0479 50.4816 12.8773C49.7691 11.6914 48.8173 10.667 47.6869 9.86934C46.5567 9.07126 45.31 8.45242 43.9909 8.03468C43.1308 7.76043 42.2521 7.54833 41.3616 7.40001C41.2795 7.39002 41.1961 7.39786 41.1173 7.42298C41.0384 7.4481 40.9659 7.48992 40.9046 7.5456C40.8434 7.60127 40.7949 7.66949 40.7624 7.7456C40.7299 7.82172 40.7141 7.90394 40.7163 7.98668V8.04001C40.6994 8.12528 40.7 8.21306 40.7179 8.29811C40.7358 8.38315 40.7707 8.4637 40.8205 8.53493C40.8703 8.60615 40.934 8.66658 41.0077 8.71259C41.0815 8.7586 41.1637 8.78924 41.2496 8.80268C42.035 8.92304 42.8105 9.10131 43.5696 9.33601C44.748 9.69496 45.8635 10.2347 46.8763 10.936C47.8584 11.6237 48.6927 12.5015 49.3296 13.5173C50.5328 15.6056 50.8861 18.0769 50.3163 20.4186C50.0707 21.5927 49.6951 22.7358 49.1963 23.8266C48.7465 23.0058 48.2496 22.2116 47.7083 21.448C45.9131 18.9715 43.7825 16.7566 41.3776 14.8667C40.8657 13.1849 40.2017 11.5532 39.3936 9.99201C39.3955 9.97785 39.3955 9.9635 39.3936 9.94934C39.3936 9.94934 39.303 9.94934 39.2123 10.024L39.0416 10.1253C38.9577 10.1727 38.8704 10.2137 38.7803 10.248C38.631 10.312 38.5083 10.36 38.519 10.376C38.5296 10.392 38.519 10.376 38.519 10.4027C39.0521 11.4823 39.5135 12.5958 39.9003 13.736C37.3542 11.8912 34.6013 10.3501 31.6976 9.14401C32.4123 8.99468 33.127 8.86134 33.831 8.76534C34.199 8.71201 34.2096 8.55734 33.959 8.28001L33.8203 8.09868C33.623 7.78401 33.3563 7.49068 32.983 7.56535C31.8115 7.71875 30.6529 7.95761 29.5163 8.28001C26.7634 7.29728 23.8954 6.67347 20.983 6.42402C20.0284 6.35193 19.0706 6.33057 18.1137 6.36002C18.737 5.62038 19.4241 4.93687 20.167 4.31736C21.1426 3.49625 22.2402 2.83228 23.4203 2.34936C24.6012 1.86493 25.8667 1.62017 27.143 1.62933C28.4194 1.63848 29.6812 1.90137 30.855 2.40269C32.0205 2.90095 33.1003 3.57947 34.055 4.41336C34.3856 4.69602 34.7056 5.00002 35.0096 5.30935C35.3136 5.61869 35.6016 5.66669 35.7883 5.52802C35.975 5.38935 35.9323 5.08002 35.6656 4.81335C35.3266 4.46869 34.9706 4.14117 34.599 3.83202C33.5528 2.9667 32.3777 2.2703 31.1163 1.76803C29.8528 1.25202 28.4997 0.991079 27.135 1.00023C25.7702 1.00939 24.4208 1.28845 23.1643 1.82136C21.9343 2.35146 20.7951 3.07133 19.7883 3.95469C18.9306 4.69727 18.1482 5.52259 17.4523 6.41868C15.9195 6.49261 14.401 6.75046 12.9297 7.18668C11.6187 7.58521 10.3773 8.1843 9.24969 8.96268C8.11255 9.74451 7.14854 10.7521 6.4177 11.9227C5.70543 13.0837 5.25074 14.3841 5.08437 15.736C4.927 17.0617 4.99008 18.4042 5.27104 19.7093C5.44864 20.5476 5.68933 21.3713 5.99104 22.1733C6.02239 22.2519 6.07036 22.3227 6.13166 22.381C6.19296 22.4393 6.26614 22.4836 6.34618 22.511C6.42622 22.5383 6.51122 22.5481 6.59537 22.5395C6.67952 22.5309 6.76082 22.5042 6.8337 22.4613L6.93503 22.4186C7.01634 22.3937 7.09163 22.3522 7.15618 22.2968C7.22073 22.2414 7.27316 22.1732 7.3102 22.0967C7.34724 22.0201 7.36809 21.9367 7.37144 21.8517C7.3748 21.7667 7.36059 21.6819 7.3297 21.6026C7.05562 20.8988 6.83631 20.1749 6.6737 19.4373C6.41606 18.2754 6.35119 17.079 6.4817 15.896C6.62245 14.7265 7.00378 13.5989 7.6017 12.584C8.79103 10.5307 10.935 9.06934 13.319 8.28535C14.3925 7.93952 15.496 7.6949 16.615 7.55468C16.0662 8.36166 15.5658 9.20046 15.1163 10.0667C13.8527 12.5978 12.9394 15.2892 12.4017 18.0667C11.2221 19.2443 10.1511 20.526 9.20169 21.896C9.17503 21.928 9.15369 21.9653 9.12703 22.0026C9.10036 22.04 9.22836 22.1946 9.42036 22.3226L9.77236 22.5573L9.82569 22.5893C9.83657 22.5971 9.84963 22.6013 9.86303 22.6013C9.87642 22.6013 9.88948 22.5971 9.90036 22.5893V22.5573C10.5701 21.6397 11.2969 20.7651 12.0764 19.9387C11.8394 21.5531 11.7111 23.1817 11.6924 24.8133C11.6791 26.1112 11.7325 27.4089 11.8524 28.7013C11.5484 28.3653 11.2444 28.024 10.9564 27.672C10.6684 27.32 10.423 27.432 10.215 27.736L10.1404 27.8373C10.0124 27.9571 9.9318 28.1189 9.9132 28.2931C9.8946 28.4674 9.93925 28.6425 10.039 28.7866C10.706 29.5741 11.4183 30.3221 12.1724 31.0266C12.6341 34.0306 13.5438 36.9484 14.871 39.6826C15.191 40.3333 15.5483 40.9626 15.9377 41.5866C15.0905 41.4535 14.2544 41.2574 13.4364 40.9999C12.2195 40.6093 11.0701 40.0337 10.0284 39.2933C9.0149 38.5689 8.1601 37.6451 7.51637 36.5786C6.89028 35.5215 6.4958 34.3436 6.35903 33.1226C6.2296 31.9026 6.30531 30.6696 6.58303 29.4746C6.66303 29.112 6.75903 28.7546 6.8657 28.408C6.97237 28.0613 6.9937 27.7306 6.8657 27.688L6.67903 27.592L6.48703 27.4746C6.3857 27.4053 6.20437 27.6293 6.0977 28.008C5.99104 28.3866 5.85237 28.8933 5.7617 29.3413C5.49875 30.6167 5.44829 31.9268 5.61237 33.2186C5.78095 34.5203 6.22063 35.7721 6.90303 36.8933C7.6096 38.0262 8.53853 39.0041 9.63369 39.7679C10.7376 40.5271 11.9518 41.1117 13.2337 41.5013C14.2126 41.8026 15.2153 42.0202 16.231 42.1519C17.1497 43.5807 18.2667 44.8718 19.5483 45.9866C20.5794 46.8869 21.7456 47.6194 23.0043 48.1572C24.3155 48.706 25.7216 48.9923 27.143 48.9999C28.5574 49.0057 29.9588 48.7301 31.2656 48.1893C32.5419 47.667 33.7279 46.947 34.7803 46.0559C35.4514 45.4866 36.0773 44.8661 36.6523 44.1999C36.7068 44.1387 36.7465 44.0658 36.7683 43.9868C36.79 43.9078 36.7933 43.8249 36.7778 43.7444C36.7624 43.6639 36.7286 43.5881 36.679 43.5228C36.6295 43.4575 36.5656 43.4045 36.4923 43.3679L36.407 43.3093C36.2715 43.1982 36.0985 43.1434 35.9238 43.1563C35.749 43.1692 35.586 43.2488 35.4683 43.3786C34.959 43.9498 34.4101 44.4845 33.8256 44.9786C32.8936 45.7795 31.8429 46.4309 30.711 46.9093C29.5791 47.3787 28.3682 47.6285 27.143 47.6452C24.6557 47.6136 22.2606 46.6987 20.3857 45.0639C19.3918 44.2286 18.497 43.2819 17.719 42.2426C18.8769 42.3173 20.0384 42.3173 21.1963 42.2426C24.0433 42.0264 26.8534 41.4641 29.5643 40.5679C31.2844 41.0118 33.0377 41.315 34.807 41.4746C35.1803 41.5066 35.447 41.3839 35.4256 41.2079C35.4088 41.1003 35.3999 40.9916 35.399 40.8826C35.399 40.8293 35.399 40.7759 35.399 40.7279C35.399 40.6799 35.111 40.5413 34.7376 40.4986C33.6081 40.3718 32.4864 40.1831 31.3776 39.9333C33.0536 39.295 34.6872 38.5504 36.2683 37.7039C37.4872 37.0526 38.6727 36.3406 39.8203 35.5706C39.6176 36.1626 39.399 36.7493 39.1536 37.3253C39.0096 37.6719 39.1536 37.8106 39.5216 37.7199L39.9109 37.6506C40.1098 37.622 40.2989 37.5461 40.4623 37.4291C40.6256 37.3122 40.7585 37.1577 40.8496 36.9786C41.2371 36.0707 41.5493 35.1324 41.7829 34.1733C44.2152 32.3202 46.3703 30.1292 48.1829 27.6666C48.6643 26.9984 49.1111 26.3059 49.5216 25.592C49.9181 26.5234 50.2218 27.4916 50.4283 28.4826C50.6831 29.6886 50.7372 30.9284 50.5883 32.152C50.4278 33.3702 50.0155 34.5417 49.3776 35.5919C48.7135 36.6432 47.8447 37.5501 46.8229 38.2586C45.7674 38.9874 44.6076 39.552 43.3829 39.9333C42.8496 40.0933 42.3163 40.2213 41.7829 40.3279C41.4149 40.4026 41.1323 40.5519 41.1483 40.6853C41.1536 40.7652 41.1536 40.8454 41.1483 40.9253C41.1483 40.9839 41.1483 41.0426 41.1483 41.1013C41.1483 41.1599 41.4309 41.2293 41.7936 41.1493C42.4127 41.0227 43.0236 40.8588 43.6229 40.6586C44.9051 40.2438 46.1157 39.634 47.2123 38.8506C48.286 38.0691 49.1926 37.0809 49.8789 35.9439C50.5459 34.8123 50.9674 33.5531 51.1163 32.248C51.2583 30.9645 51.1826 29.6662 50.8923 28.408C50.6352 27.2642 50.2543 26.1519 49.7563 25.0906C50.5233 23.6986 51.094 22.2071 51.4523 20.6586C51.7716 19.3654 51.8743 18.0282 51.7563 16.7013ZM15.5377 10.2693C16.0352 9.2983 16.6076 8.36749 17.2497 7.48535C18.4653 7.36403 19.6884 7.33551 20.9083 7.40001C23.3631 7.55563 25.7926 7.98678 28.151 8.68534L27.9856 8.73868C25.4487 9.5569 23.0007 10.629 20.679 11.9387C17.929 13.4526 15.3733 15.2955 13.0684 17.4267C13.5633 14.94 14.394 12.5322 15.5377 10.2693ZM21.1537 41.8373C19.8869 41.9253 18.6151 41.9092 17.351 41.7893C16.7762 40.9832 16.2577 40.1386 15.799 39.2613C14.6047 36.9556 13.7257 34.4998 13.1857 31.96C13.4204 32.168 13.6497 32.376 13.9003 32.584C15.9253 34.287 18.12 35.7775 20.4497 37.0319C23.0597 38.439 25.8156 39.5567 28.6683 40.3653C26.2324 41.159 23.709 41.6533 21.1537 41.8373ZM35.943 37.1759C34.1829 38.1598 32.3542 39.0154 30.471 39.7359C27.1966 38.8924 24.0477 37.621 21.1057 35.9546C18.0463 34.2572 15.2402 32.1387 12.7697 29.6613C12.5299 28.0612 12.3963 26.447 12.3697 24.8293C12.3556 22.9719 12.4804 21.1161 12.743 19.2773C15.2843 16.7823 18.1772 14.6728 21.3297 13.016C24.1929 11.4488 27.2379 10.2398 30.3963 9.41601C32.2278 10.0826 34.01 10.8774 35.7296 11.7947C37.2721 12.6324 38.7596 13.5676 40.1829 14.5947C41.178 17.9116 41.6601 21.3613 41.6123 24.824C41.5993 28.0529 41.1362 31.2643 40.2363 34.3653C38.8657 35.3916 37.4318 36.3303 35.943 37.1759ZM47.3189 27.1333C45.8158 29.2785 44.043 31.2215 42.0443 32.9146C42.0763 32.7653 42.103 32.6266 42.1349 32.472C42.6651 29.9595 42.9208 27.397 42.8976 24.8293C42.8679 21.7551 42.4449 18.6974 41.6389 15.7307C43.8043 17.4448 45.7228 19.4495 47.3403 21.688C47.9352 22.5384 48.4698 23.4295 48.9403 24.3546C48.4683 25.3191 47.9264 26.2478 47.3189 27.1333ZM35.4416 6.95202L36.3483 6.71735C36.7704 6.58546 37.1571 6.35932 37.479 6.05602L38.1296 5.37869C38.391 5.10669 38.6043 5.19202 38.6043 5.56535V7.10135V8.63734C38.6043 9.01068 38.343 9.17068 38.0176 8.97868L36.6843 8.22135L35.383 7.45868C35.047 7.27735 35.079 7.04802 35.4416 6.95202ZM40.0496 39.4853L39.783 40.3919C39.6843 40.8219 39.6843 41.2686 39.783 41.6986L40.0283 42.6053C40.1243 42.9679 39.943 43.1066 39.6176 42.9146L38.3003 42.1306L36.983 41.3519C36.6576 41.1599 36.663 40.8613 36.983 40.6746L38.311 39.9333L39.6496 39.1759C39.9749 38.9893 40.1829 39.1333 40.0496 39.4906V39.4853ZM5.60704 25.5333C5.2497 25.4213 5.22837 25.192 5.55904 25L6.92437 24.3066L8.28436 23.6026C8.62036 23.432 8.87636 23.6026 8.85503 23.9706L8.7857 25.5013L8.71636 27.0373C8.71636 27.4106 8.4817 27.4853 8.23103 27.208L7.60703 26.504C7.29926 26.1848 6.92123 25.9419 6.50303 25.7946L5.60704 25.5333Z" fill="#134952"/>
<path d="M28.4016 15.288C26.481 15.2891 24.6038 15.8595 23.0074 16.9274C21.411 17.9952 20.167 19.5123 19.4328 21.2871C18.6985 23.0618 18.5069 25.0144 18.8823 26.8979C19.2576 28.7815 20.183 30.5115 21.5415 31.8693C22.8999 33.227 24.6304 34.1514 26.5142 34.5257C28.398 34.9 30.3505 34.7074 32.1248 33.9722C33.8991 33.2369 35.4156 31.9921 36.4826 30.3951C37.5495 28.7981 38.119 26.9206 38.119 25C38.119 23.7241 37.8676 22.4608 37.3792 21.2821C36.8908 20.1035 36.1749 19.0326 35.2725 18.1307C34.3701 17.2288 33.2988 16.5135 32.1199 16.0257C30.941 15.538 29.6775 15.2873 28.4016 15.288ZM28.4016 15.7573H28.695C28.695 15.8373 28.6043 15.896 28.487 15.992C28.3696 16.088 27.9003 16.648 27.735 16.5627C27.5696 16.4773 27.735 16.4027 27.6817 16.3173C27.6283 16.232 27.575 16.2 27.5376 16.136C27.4712 16.0319 27.4124 15.9232 27.3616 15.8107C27.7071 15.7741 28.0543 15.7563 28.4016 15.7573ZM29.6176 26.9573C29.3301 27.339 29.1365 27.7829 29.0523 28.2533C29.0096 28.52 29.1163 28.7226 28.855 28.92C28.5936 29.1173 28.4496 29.0693 28.3216 29.2986C28.1936 29.528 28.215 29.7733 28.0923 29.9653C27.953 30.1444 27.7977 30.3104 27.6283 30.4613C27.5592 30.55 27.4785 30.6289 27.3883 30.696C27.2283 30.7813 27.1483 30.6533 27.1537 30.9146C27.159 31.176 27.2763 31.0746 27.1537 31.2666C27.0737 31.368 26.967 31.4533 26.8923 31.5493C26.8001 31.6592 26.7371 31.7907 26.7091 31.9314C26.6811 32.0722 26.6891 32.2178 26.7323 32.3546C26.7643 32.52 26.7323 32.6746 26.7323 32.8293C26.7323 32.984 26.9297 33.1333 26.8977 33.3039C26.4497 33.3786 26.135 32.8346 26.055 32.472C25.9537 31.992 25.8097 31.5333 25.735 31.0373C25.6094 30.5757 25.5202 30.1049 25.4683 29.6293C25.507 29.3988 25.4975 29.1628 25.4406 28.9361C25.3837 28.7094 25.2806 28.4969 25.1377 28.312C24.8657 28.04 24.487 27.9226 24.3217 27.5706C24.2478 27.3514 24.2013 27.1239 24.183 26.8933C24.119 26.632 23.9163 26.568 23.7297 26.424C23.5704 26.2649 23.4656 26.0596 23.4302 25.8373C23.3947 25.6151 23.4305 25.3873 23.5323 25.1866C23.639 24.92 24.2097 24.1573 23.959 23.8586C23.8043 23.688 23.5377 23.912 23.3777 23.8586C23.2321 23.7818 23.0946 23.6907 22.967 23.5866C22.935 23.3146 22.7857 23.2773 22.5457 23.224C22.5116 23.0939 22.4378 22.9778 22.3345 22.8917C22.2313 22.8057 22.1037 22.754 21.9697 22.744C21.6283 22.7066 21.5697 22.536 21.3937 22.28C21.2177 22.024 21.2443 21.8693 21.287 21.496C21.3511 21.1702 21.3511 20.8351 21.287 20.5093C20.9723 20.5466 21.1377 21.2133 20.7537 21.1013C20.7217 20.7866 20.8977 20.6266 20.9883 20.36C21.079 20.0933 21.031 19.8853 21.0843 19.6773C21.1424 19.4489 21.2398 19.2323 21.3723 19.0373C21.5163 18.8453 21.7457 18.7653 21.9057 18.5573C21.944 18.4948 21.9761 18.4287 22.0017 18.36C23.2879 17.1142 24.9098 16.2708 26.6683 15.9333C26.7005 15.9653 26.7308 15.9991 26.759 16.0347C26.823 16.1627 26.903 16.2427 26.727 16.3707C26.423 16.6053 26.247 16.2053 26.0017 16.2533C25.7563 16.3013 25.639 16.6053 25.3457 16.6427C25.0523 16.68 24.6897 16.7067 24.6897 17.0533C24.7844 17.0877 24.8829 17.1109 24.983 17.1227C25.0098 17.269 25.0098 17.419 24.983 17.5653C25.335 17.624 25.2443 17.4587 25.3403 17.24C25.4363 17.0213 25.671 17.0587 25.799 16.888C25.927 16.7173 25.8737 16.4773 26.1723 16.5893C26.3483 16.6587 26.391 16.8293 26.6257 16.7973C26.6578 16.8906 26.6578 16.992 26.6257 17.0853C26.9083 17.0853 26.9403 17.2293 27.0737 17.4267C27.1483 17.544 27.3883 17.8907 27.0417 17.9013C26.8603 17.9013 26.935 17.7947 26.807 17.7093C26.679 17.624 26.7003 17.672 26.5403 17.7093C26.3803 17.7467 26.007 17.7093 26.231 17.9493C26.455 18.1893 26.6577 18.1787 26.295 18.328C26.215 18.36 26.071 18.4293 25.9963 18.4507C25.815 18.488 25.8843 18.4027 25.7457 18.3973C25.367 18.3973 25.7083 18.6907 25.447 18.8613C25.2763 18.9733 25.0897 18.9627 24.9137 19.112C24.7377 19.2613 24.6097 19.4 24.4763 19.5493C24.343 19.6987 24.2843 19.9546 24.151 20.1467C24.0177 20.3386 23.847 20.3386 23.863 20.632C23.863 20.808 23.943 21.1653 23.6817 21.1973C23.6817 20.9786 23.7723 20.7973 23.6817 20.6053C23.6436 20.5194 23.5775 20.4489 23.4942 20.4053C23.4109 20.3617 23.3153 20.3476 23.223 20.3653C22.8516 20.4813 22.5182 20.695 22.2577 20.984C22.1083 21.1973 21.847 21.8853 22.0177 22.1306C22.279 22.504 22.615 21.64 22.919 21.656C23.0737 21.9813 22.711 22.1893 22.7483 22.4826C23.047 22.584 23.3137 22.616 23.1643 23.016L23.223 23.1386C23.223 23.5066 23.271 23.672 23.6763 23.5866C23.9356 23.5367 24.1845 23.4429 24.4123 23.3093C24.5192 23.2293 24.6357 23.163 24.759 23.112C24.9083 23.112 25.063 23.2026 25.207 23.2186C25.3453 23.2147 25.4829 23.1968 25.6177 23.1653C25.7883 23.1653 25.9003 23.256 26.0603 23.2613C26.1243 23.416 26.3803 23.5653 26.5137 23.6506C26.6173 23.7223 26.7281 23.7831 26.8443 23.832C26.9457 23.8693 27.1217 23.88 27.2017 23.9226C27.2979 24.0083 27.3748 24.1135 27.4273 24.2312C27.4797 24.3489 27.5064 24.4764 27.5056 24.6053C27.5056 24.7813 27.2657 25.1386 27.3457 25.272C27.495 25.5066 27.7403 25.1386 27.9163 25.1386C28.0923 25.1386 28.023 25.2026 28.135 25.2346C28.247 25.2666 28.3323 25.2346 28.4656 25.2346C28.6791 25.2997 28.8876 25.3799 29.0896 25.4746C29.3723 25.5493 29.4843 25.4746 29.6976 25.704C30.1243 26.12 29.9696 26.4986 29.6176 26.9466V26.9573ZM37.6176 25.736C37.5667 25.9696 37.5328 26.2067 37.5163 26.4453C37.5133 26.4968 37.5133 26.5485 37.5163 26.6C37.4683 26.8826 37.4043 27.1333 37.3296 27.432C37.2698 27.5408 37.2164 27.653 37.1696 27.768C36.9652 28.1849 36.7243 28.5829 36.4496 28.9573C36.2444 29.3998 35.9648 29.8039 35.623 30.152C35.4256 30.3013 35.2603 30.4133 35.0896 30.216C35.0144 30.1138 34.9645 29.9953 34.9441 29.8701C34.9237 29.7449 34.9334 29.6167 34.9723 29.496C35.047 29.256 35.2123 29.048 35.2763 28.808C35.326 28.5615 35.3599 28.3121 35.3776 28.0613C35.373 27.8194 35.3462 27.5784 35.2976 27.3413C35.2976 27.0746 35.4523 26.8773 35.5056 26.6213C35.5723 26.3629 35.6257 26.1012 35.6656 25.8373C35.6919 25.721 35.6876 25.6 35.653 25.4859C35.6184 25.3718 35.5547 25.2687 35.4683 25.1866C35.3863 25.0937 35.3257 24.984 35.2906 24.8651C35.2556 24.7463 35.2471 24.6212 35.2656 24.4986C35.3083 24.3013 35.5056 23.9653 35.3243 23.8106C35.1056 24.0133 34.9403 23.7733 34.7483 23.688C34.5563 23.6026 34.4816 23.7413 34.2576 23.848C34.0545 23.9294 33.8436 23.9901 33.6283 24.0293C33.5279 24.0552 33.4224 24.0535 33.3229 24.0244C33.2234 23.9953 33.1336 23.9399 33.063 23.864C32.7805 23.5645 32.5152 23.2493 32.2683 22.92C32.2138 22.82 32.1657 22.7167 32.1243 22.6106C32.0656 22.5093 31.9216 22.44 31.879 22.3493C31.7776 22.152 32.0336 21.896 32.0656 21.656C32.119 21.224 31.7296 20.6693 31.9216 20.2853C32.0016 20.12 32.263 20.0293 32.3056 19.8266C32.3483 19.624 32.199 19.6507 32.3056 19.496C32.4123 19.3413 32.4496 19.4053 32.5296 19.3573C32.8283 19.1867 33.5963 18.7547 33.9003 19.0213C33.9856 19.0907 33.9643 19.2133 34.055 19.2826C34.1456 19.352 34.2896 19.2826 34.3803 19.3573C34.567 19.464 34.6683 19.6347 34.8816 19.704C34.9296 19.3253 35.8096 19.9013 35.4523 19.1707C35.3834 19.0189 35.27 18.8918 35.1271 18.806C34.9842 18.7203 34.8186 18.6801 34.6523 18.6907C34.6523 18.6907 34.7003 18.7973 34.743 18.8347C34.4496 19.0693 34.4603 18.808 34.343 18.6267C34.2104 18.475 34.0389 18.3625 33.847 18.3013C33.847 18.4027 33.943 18.4827 33.927 18.5893C33.7456 18.5893 33.6656 18.376 33.5323 18.2747C33.4758 18.2176 33.4071 18.1741 33.3313 18.1473C33.2556 18.1205 33.1748 18.1112 33.095 18.12C32.6416 18.1733 32.9403 18.7227 32.5616 18.8613C32.4752 18.8882 32.3839 18.895 32.2944 18.8814C32.205 18.8677 32.1198 18.834 32.0454 18.7826C31.9709 18.7312 31.909 18.6636 31.8645 18.5849C31.82 18.5061 31.7939 18.4183 31.7883 18.328C31.7883 18.072 32.0443 18.2 32.0923 17.9973C32.1403 17.7947 31.9056 17.7253 31.7936 17.6613C31.9963 17.208 31.063 17.272 31.047 16.8613C31.047 16.584 31.3723 16.7173 31.4843 16.8613C31.5963 17.0053 31.7456 17.3093 31.9056 17.032C32.0656 16.7547 31.6603 16.7387 31.527 16.696C31.303 16.616 31.223 16.4613 31.095 16.2853C31.0589 16.2316 31.0197 16.1799 30.9776 16.1307C32.8992 16.6889 34.5881 17.8549 35.791 19.454C36.9939 21.0531 37.646 22.999 37.6496 25C37.6496 25.2453 37.6496 25.4853 37.6176 25.7253V25.736ZM51.7563 16.7013C51.6057 15.3511 51.1713 14.0479 50.4816 12.8773C49.7691 11.6914 48.8173 10.667 47.6869 9.86934C46.5567 9.07126 45.31 8.45242 43.9909 8.03468C43.1308 7.76043 42.2521 7.54833 41.3616 7.40001C41.2795 7.39002 41.1961 7.39786 41.1173 7.42298C41.0384 7.4481 40.9659 7.48992 40.9046 7.5456C40.8434 7.60127 40.7949 7.66949 40.7624 7.7456C40.7299 7.82172 40.7141 7.90394 40.7163 7.98668V8.04001C40.6994 8.12528 40.7 8.21306 40.7179 8.29811C40.7358 8.38315 40.7707 8.4637 40.8205 8.53493C40.8703 8.60615 40.934 8.66658 41.0077 8.71259C41.0815 8.7586 41.1637 8.78924 41.2496 8.80268C42.035 8.92304 42.8105 9.10131 43.5696 9.33601C44.748 9.69496 45.8635 10.2347 46.8763 10.936C47.8584 11.6237 48.6927 12.5015 49.3296 13.5173C50.5328 15.6056 50.8861 18.0769 50.3163 20.4186C50.0707 21.5927 49.6951 22.7358 49.1963 23.8266C48.7465 23.0058 48.2496 22.2116 47.7083 21.448C45.9131 18.9715 43.7825 16.7566 41.3776 14.8667C40.8657 13.1849 40.2017 11.5532 39.3936 9.99201C39.3955 9.97785 39.3955 9.9635 39.3936 9.94934C39.3936 9.94934 39.303 9.94934 39.2123 10.024L39.0416 10.1253C38.9577 10.1727 38.8704 10.2137 38.7803 10.248C38.631 10.312 38.5083 10.36 38.519 10.376C38.5296 10.392 38.519 10.376 38.519 10.4027C39.0521 11.4823 39.5135 12.5958 39.9003 13.736C37.3542 11.8912 34.6013 10.3501 31.6976 9.14401C32.4123 8.99468 33.127 8.86134 33.831 8.76534C34.199 8.71201 34.2096 8.55734 33.959 8.28001L33.8203 8.09868C33.623 7.78401 33.3563 7.49068 32.983 7.56535C31.8115 7.71875 30.6529 7.95761 29.5163 8.28001C26.7634 7.29728 23.8954 6.67347 20.983 6.42402C20.0284 6.35193 19.0706 6.33057 18.1137 6.36002C18.737 5.62038 19.4241 4.93687 20.167 4.31736C21.1426 3.49625 22.2402 2.83228 23.4203 2.34936C24.6012 1.86493 25.8667 1.62017 27.143 1.62933C28.4194 1.63848 29.6812 1.90137 30.855 2.40269C32.0205 2.90095 33.1003 3.57947 34.055 4.41336C34.3856 4.69602 34.7056 5.00002 35.0096 5.30935C35.3136 5.61869 35.6016 5.66669 35.7883 5.52802C35.975 5.38935 35.9323 5.08002 35.6656 4.81335C35.3266 4.46869 34.9706 4.14117 34.599 3.83202C33.5528 2.9667 32.3777 2.2703 31.1163 1.76803C29.8528 1.25202 28.4997 0.991079 27.135 1.00023C25.7702 1.00939 24.4208 1.28845 23.1643 1.82136C21.9343 2.35146 20.7951 3.07133 19.7883 3.95469C18.9306 4.69727 18.1482 5.52259 17.4523 6.41868C15.9195 6.49261 14.401 6.75046 12.9297 7.18668C11.6187 7.58521 10.3773 8.1843 9.24969 8.96268C8.11255 9.74451 7.14854 10.7521 6.4177 11.9227C5.70543 13.0837 5.25074 14.3841 5.08437 15.736C4.927 17.0617 4.99008 18.4042 5.27104 19.7093C5.44864 20.5476 5.68933 21.3713 5.99104 22.1733C6.02239 22.2519 6.07036 22.3227 6.13166 22.381C6.19296 22.4393 6.26614 22.4836 6.34618 22.511C6.42622 22.5383 6.51122 22.5481 6.59537 22.5395C6.67952 22.5309 6.76082 22.5042 6.8337 22.4613L6.93503 22.4186C7.01634 22.3937 7.09163 22.3522 7.15618 22.2968C7.22073 22.2414 7.27316 22.1732 7.3102 22.0967C7.34724 22.0201 7.36809 21.9367 7.37144 21.8517C7.3748 21.7667 7.36059 21.6819 7.3297 21.6026C7.05562 20.8988 6.83631 20.1749 6.6737 19.4373C6.41606 18.2754 6.35119 17.079 6.4817 15.896C6.62245 14.7265 7.00378 13.5989 7.6017 12.584C8.79103 10.5307 10.935 9.06934 13.319 8.28535C14.3925 7.93952 15.496 7.6949 16.615 7.55468C16.0662 8.36166 15.5658 9.20046 15.1163 10.0667C13.8527 12.5978 12.9394 15.2892 12.4017 18.0667C11.2221 19.2443 10.1511 20.526 9.20169 21.896C9.17503 21.928 9.15369 21.9653 9.12703 22.0026C9.10036 22.04 9.22836 22.1946 9.42036 22.3226L9.77236 22.5573L9.82569 22.5893C9.83657 22.5971 9.84963 22.6013 9.86303 22.6013C9.87642 22.6013 9.88948 22.5971 9.90036 22.5893V22.5573C10.5701 21.6397 11.2969 20.7651 12.0764 19.9387C11.8394 21.5531 11.7111 23.1817 11.6924 24.8133C11.6791 26.1112 11.7325 27.4089 11.8524 28.7013C11.5484 28.3653 11.2444 28.024 10.9564 27.672C10.6684 27.32 10.423 27.432 10.215 27.736L10.1404 27.8373C10.0124 27.9571 9.9318 28.1189 9.9132 28.2931C9.8946 28.4674 9.93925 28.6425 10.039 28.7866C10.706 29.5741 11.4183 30.3221 12.1724 31.0266C12.6341 34.0306 13.5438 36.9484 14.871 39.6826C15.191 40.3333 15.5483 40.9626 15.9377 41.5866C15.0905 41.4535 14.2544 41.2574 13.4364 40.9999C12.2195 40.6093 11.0701 40.0337 10.0284 39.2933C9.0149 38.5689 8.1601 37.6451 7.51637 36.5786C6.89028 35.5215 6.4958 34.3436 6.35903 33.1226C6.2296 31.9026 6.30531 30.6696 6.58303 29.4746C6.66303 29.112 6.75903 28.7546 6.8657 28.408C6.97237 28.0613 6.9937 27.7306 6.8657 27.688L6.67903 27.592L6.48703 27.4746C6.3857 27.4053 6.20437 27.6293 6.0977 28.008C5.99104 28.3866 5.85237 28.8933 5.7617 29.3413C5.49875 30.6167 5.44829 31.9268 5.61237 33.2186C5.78095 34.5203 6.22063 35.7721 6.90303 36.8933C7.6096 38.0262 8.53853 39.0041 9.63369 39.7679C10.7376 40.5271 11.9518 41.1117 13.2337 41.5013C14.2126 41.8026 15.2153 42.0202 16.231 42.1519C17.1497 43.5807 18.2667 44.8718 19.5483 45.9866C20.5794 46.8869 21.7456 47.6194 23.0043 48.1572C24.3155 48.706 25.7216 48.9923 27.143 48.9999C28.5574 49.0057 29.9588 48.7301 31.2656 48.1893C32.5419 47.667 33.7279 46.947 34.7803 46.0559C35.4514 45.4866 36.0773 44.8661 36.6523 44.1999C36.7068 44.1387 36.7465 44.0658 36.7683 43.9868C36.79 43.9078 36.7933 43.8249 36.7778 43.7444C36.7624 43.6639 36.7286 43.5881 36.679 43.5228C36.6295 43.4575 36.5656 43.4045 36.4923 43.3679L36.407 43.3093C36.2715 43.1982 36.0985 43.1434 35.9238 43.1563C35.749 43.1692 35.586 43.2488 35.4683 43.3786C34.959 43.9498 34.4101 44.4845 33.8256 44.9786C32.8936 45.7795 31.8429 46.4309 30.711 46.9093C29.5791 47.3787 28.3682 47.6285 27.143 47.6452C24.6557 47.6136 22.2606 46.6987 20.3857 45.0639C19.3918 44.2286 18.497 43.2819 17.719 42.2426C18.8769 42.3173 20.0384 42.3173 21.1963 42.2426C24.0433 42.0264 26.8534 41.4641 29.5643 40.5679C31.2844 41.0118 33.0377 41.315 34.807 41.4746C35.1803 41.5066 35.447 41.3839 35.4256 41.2079C35.4088 41.1003 35.3999 40.9916 35.399 40.8826C35.399 40.8293 35.399 40.7759 35.399 40.7279C35.399 40.6799 35.111 40.5413 34.7376 40.4986C33.6081 40.3718 32.4864 40.1831 31.3776 39.9333C33.0536 39.295 34.6872 38.5504 36.2683 37.7039C37.4872 37.0526 38.6727 36.3406 39.8203 35.5706C39.6176 36.1626 39.399 36.7493 39.1536 37.3253C39.0096 37.6719 39.1536 37.8106 39.5216 37.7199L39.9109 37.6506C40.1098 37.622 40.2989 37.5461 40.4623 37.4291C40.6256 37.3122 40.7585 37.1577 40.8496 36.9786C41.2371 36.0707 41.5493 35.1324 41.7829 34.1733C44.2152 32.3202 46.3703 30.1292 48.1829 27.6666C48.6643 26.9984 49.1111 26.3059 49.5216 25.592C49.9181 26.5234 50.2218 27.4916 50.4283 28.4826C50.6831 29.6886 50.7372 30.9284 50.5883 32.152C50.4278 33.3702 50.0155 34.5417 49.3776 35.5919C48.7135 36.6432 47.8447 37.5501 46.8229 38.2586C45.7674 38.9874 44.6076 39.552 43.3829 39.9333C42.8496 40.0933 42.3163 40.2213 41.7829 40.3279C41.4149 40.4026 41.1323 40.5519 41.1483 40.6853C41.1536 40.7652 41.1536 40.8454 41.1483 40.9253C41.1483 40.9839 41.1483 41.0426 41.1483 41.1013C41.1483 41.1599 41.4309 41.2293 41.7936 41.1493C42.4127 41.0227 43.0236 40.8588 43.6229 40.6586C44.9051 40.2438 46.1157 39.634 47.2123 38.8506C48.286 38.0691 49.1926 37.0809 49.8789 35.9439C50.5459 34.8123 50.9674 33.5531 51.1163 32.248C51.2583 30.9645 51.1826 29.6662 50.8923 28.408C50.6352 27.2642 50.2543 26.1519 49.7563 25.0906C50.5233 23.6986 51.094 22.2071 51.4523 20.6586C51.7716 19.3654 51.8743 18.0282 51.7563 16.7013ZM15.5377 10.2693C16.0352 9.2983 16.6076 8.36749 17.2497 7.48535C18.4653 7.36403 19.6884 7.33551 20.9083 7.40001C23.3631 7.55563 25.7926 7.98678 28.151 8.68534L27.9856 8.73868C25.4487 9.5569 23.0007 10.629 20.679 11.9387C17.929 13.4526 15.3733 15.2955 13.0684 17.4267C13.5633 14.94 14.394 12.5322 15.5377 10.2693ZM21.1537 41.8373C19.8869 41.9253 18.6151 41.9092 17.351 41.7893C16.7762 40.9832 16.2577 40.1386 15.799 39.2613C14.6047 36.9556 13.7257 34.4998 13.1857 31.96C13.4204 32.168 13.6497 32.376 13.9003 32.584C15.9253 34.287 18.12 35.7775 20.4497 37.0319C23.0597 38.439 25.8156 39.5567 28.6683 40.3653C26.2324 41.159 23.709 41.6533 21.1537 41.8373ZM35.943 37.1759C34.1829 38.1598 32.3542 39.0154 30.471 39.7359C27.1966 38.8924 24.0477 37.621 21.1057 35.9546C18.0463 34.2572 15.2402 32.1387 12.7697 29.6613C12.5299 28.0612 12.3963 26.447 12.3697 24.8293C12.3556 22.9719 12.4804 21.1161 12.743 19.2773C15.2843 16.7823 18.1772 14.6728 21.3297 13.016C24.1929 11.4488 27.2379 10.2398 30.3963 9.41601C32.2278 10.0826 34.01 10.8774 35.7296 11.7947C37.2721 12.6324 38.7596 13.5676 40.1829 14.5947C41.178 17.9116 41.6601 21.3613 41.6123 24.824C41.5993 28.0529 41.1362 31.2643 40.2363 34.3653C38.8657 35.3916 37.4318 36.3303 35.943 37.1759ZM47.3189 27.1333C45.8158 29.2785 44.043 31.2215 42.0443 32.9146C42.0763 32.7653 42.103 32.6266 42.1349 32.472C42.6651 29.9595 42.9208 27.397 42.8976 24.8293C42.8679 21.7551 42.4449 18.6974 41.6389 15.7307C43.8043 17.4448 45.7228 19.4495 47.3403 21.688C47.9352 22.5384 48.4698 23.4295 48.9403 24.3546C48.4683 25.3191 47.9264 26.2478 47.3189 27.1333ZM35.4416 6.95202L36.3483 6.71735C36.7704 6.58546 37.1571 6.35932 37.479 6.05602L38.1296 5.37869C38.391 5.10669 38.6043 5.19202 38.6043 5.56535V7.10135V8.63734C38.6043 9.01068 38.343 9.17068 38.0176 8.97868L36.6843 8.22135L35.383 7.45868C35.047 7.27735 35.079 7.04802 35.4416 6.95202ZM40.0496 39.4853L39.783 40.3919C39.6843 40.8219 39.6843 41.2686 39.783 41.6986L40.0283 42.6053C40.1243 42.9679 39.943 43.1066 39.6176 42.9146L38.3003 42.1306L36.983 41.3519C36.6576 41.1599 36.663 40.8613 36.983 40.6746L38.311 39.9333L39.6496 39.1759C39.9749 38.9893 40.1829 39.1333 40.0496 39.4906V39.4853ZM5.60704 25.5333C5.2497 25.4213 5.22837 25.192 5.55904 25L6.92437 24.3066L8.28436 23.6026C8.62036 23.432 8.87636 23.6026 8.85503 23.9706L8.7857 25.5013L8.71636 27.0373C8.71636 27.4106 8.4817 27.4853 8.23103 27.208L7.60703 26.504C7.29926 26.1848 6.92123 25.9419 6.50303 25.7946L5.60704 25.5333Z" stroke="#134952" mask="url(#path-1-outside-1_1_2640)"/>
</g>
<defs>
<filter id="filter0_d_1_2640" x="0.5" y="0.5" width="55.8037" height="57" filterUnits="userSpaceOnUse" color-interpolation-filters="sRGB">
<feFlood flood-opacity="0" result="BackgroundImageFix"/>
<feColorMatrix in="SourceAlpha" type="matrix" values="0 0 0 0 0 0 0 0 0 0 0 0 0 0 0 0 0 0 127 0" result="hardAlpha"/>
<feOffset dy="4"/>
<feGaussianBlur stdDeviation="2"/>
<feComposite in2="hardAlpha" operator="out"/>
<feColorMatrix type="matrix" values="0 0 0 0 0 0 0 0 0 0 0 0 0 0 0 0 0 0 0.25 0"/>
<feBlend mode="normal" in2="BackgroundImageFix" result="effect1_dropShadow_1_2640"/>
<feBlend mode="normal" in="SourceGraphic" in2="effect1_dropShadow_1_2640" result="shape"/>
</filter>
</defs>
</svg>
