<svg width="32" height="32" viewBox="0 0 32 32" fill="none" xmlns="http://www.w3.org/2000/svg">
<path fill-rule="evenodd" clip-rule="evenodd" d="M16 3.2002C12.4224 3.2002 8.91198 3.4882 5.48798 4.0386C3.18878 4.4082 1.59998 6.4226 1.59998 8.6818V16.9186C1.59998 19.1794 3.18878 21.1906 5.48798 21.5618C7.35678 21.8626 9.25118 22.085 11.168 22.2242C11.616 22.2562 12.0016 22.5122 12.1952 22.885L14.936 28.1538C15.0374 28.3483 15.1902 28.5113 15.3778 28.625C15.5654 28.7388 15.7806 28.7989 16 28.7989C16.2194 28.7989 16.4345 28.7388 16.6221 28.625C16.8097 28.5113 16.9625 28.3483 17.064 28.1538L19.8048 22.885C19.9054 22.6964 20.0526 22.5366 20.2324 22.4209C20.4122 22.3053 20.6186 22.2375 20.832 22.2242C22.734 22.0859 24.6291 21.8649 26.512 21.5618C28.8112 21.1922 30.4 19.1778 30.4 16.9186V8.6818C30.4 6.421 28.8112 4.4098 26.512 4.0386C23.0359 3.47946 19.5207 3.1991 16 3.2002ZM10.8 9.6002C10.4817 9.6002 10.1765 9.72663 9.95145 9.95167C9.7264 10.1767 9.59998 10.4819 9.59998 10.8002C9.59998 11.1185 9.7264 11.4237 9.95145 11.6487C10.1765 11.8738 10.4817 12.0002 10.8 12.0002H21.2C21.5182 12.0002 21.8235 11.8738 22.0485 11.6487C22.2735 11.4237 22.4 11.1185 22.4 10.8002C22.4 10.4819 22.2735 10.1767 22.0485 9.95167C21.8235 9.72663 21.5182 9.6002 21.2 9.6002H10.8ZM10.8 13.6002C10.4817 13.6002 10.1765 13.7266 9.95145 13.9517C9.7264 14.1767 9.59998 14.4819 9.59998 14.8002C9.59998 15.1185 9.7264 15.4237 9.95145 15.6487C10.1765 15.8738 10.4817 16.0002 10.8 16.0002H16.4C16.7182 16.0002 17.0235 15.8738 17.2485 15.6487C17.4735 15.4237 17.6 15.1185 17.6 14.8002C17.6 14.4819 17.4735 14.1767 17.2485 13.9517C17.0235 13.7266 16.7182 13.6002 16.4 13.6002H10.8Z" fill="white"/>
</svg>
