<svg width="100" height="100" viewBox="0 0 100 100" fill="none" xmlns="http://www.w3.org/2000/svg">
<path d="M55.5556 100V88.8889H66.6667V100H55.5556ZM44.4444 88.8889V61.1111H55.5556V88.8889H44.4444ZM88.8889 72.2222V50H100V72.2222H88.8889ZM77.7778 50V38.8889H88.8889V50H77.7778ZM11.1111 61.1111V50H22.2222V61.1111H11.1111ZM0 50V38.8889H11.1111V50H0ZM50 11.1111V0H61.1111V11.1111H50ZM8.33333 25H25V8.33333H8.33333V25ZM0 33.3333V0H33.3333V33.3333H0ZM8.33333 91.6667H25V75H8.33333V91.6667ZM0 100V66.6667H33.3333V100H0ZM75 25H91.6667V8.33333H75V25ZM66.6667 33.3333V0H100V33.3333H66.6667ZM77.7778 100V83.3333H66.6667V72.2222H88.8889V88.8889H100V100H77.7778ZM55.5556 61.1111V50H77.7778V61.1111H55.5556ZM33.3333 61.1111V50H22.2222V38.8889H55.5556V50H44.4444V61.1111H33.3333ZM38.8889 33.3333V11.1111H50V22.2222H61.1111V33.3333H38.8889ZM12.5 20.8333V12.5H20.8333V20.8333H12.5ZM12.5 87.5V79.1667H20.8333V87.5H12.5ZM79.1667 20.8333V12.5H87.5V20.8333H79.1667Z" fill="#092429"/>
</svg>
