<svg width="126" height="237" viewBox="0 0 126 237" fill="none" xmlns="http://www.w3.org/2000/svg">
<g clip-path="url(#clip0_833_6238)">
<path d="M90.6599 207.28C88.2492 210.295 85.5163 213.038 82.5099 215.46L56.5099 236.46L55.7199 235.54L54.6499 234.22L18.3499 189.34L16.3499 186.91C10.1523 177.905 7.41262 166.966 8.63431 156.103C9.856 145.24 14.957 135.183 22.9999 127.78C23.6699 127.17 24.3599 126.57 25.0599 125.99L53.3899 161.07L63.2199 173.25L63.3399 173.4L90.6599 207.28Z" fill="url(#paint0_linear_833_6238)"/>
<path d="M118.7 50.48L37.36 116.16L27.7 124C26.78 124.65 25.89 125.32 25.02 126C24.32 126.58 23.63 127.18 22.96 127.79C14.9294 135.204 9.84355 145.266 8.6366 156.129C7.42965 166.991 10.1827 177.924 16.39 186.92C16.98 187.78 17.6 188.61 18.25 189.43L18.35 189.35L18.43 189.28L40.7 216.8C28.55 187 46.86 167 51.88 162.26L53.35 161.07L88.88 132.39L104.71 119.6C105.71 118.82 106.77 118 107.71 117.14C117.032 109.057 123.234 97.9685 125.241 85.7944C127.248 73.6203 124.934 61.1276 118.7 50.48Z" fill="url(#paint1_linear_833_6238)"/>
<path d="M84.07 0L21.6 50.44C20.2666 51.4 19.01 52.4 17.83 53.44C8.6439 61.5667 2.56775 72.6334 0.641398 84.7461C-1.28496 96.8588 1.05824 109.264 7.26997 119.84L69.7 69.43C71.03 68.43 72.31 67.43 73.54 66.32C78.3237 62.0668 82.3007 56.9854 85.28 51.32C89.4494 43.3659 91.526 34.4816 91.3144 25.5035C91.1027 16.5253 88.6096 7.74875 84.07 0Z" fill="url(#paint2_linear_833_6238)"/>
<path d="M102.23 174.27C102.23 174.81 102.23 175.36 102.23 175.89C102.23 176.06 102.23 176.23 102.23 176.4C102.23 176.77 102.23 177.14 102.23 177.5C102.23 177.7 102.23 177.9 102.23 178.09C102.23 178.43 102.23 178.77 102.15 179.09L102.09 179.69C102.09 180.02 102.02 180.35 101.98 180.69C101.94 181.03 101.98 181.09 101.91 181.28C101.84 181.47 101.82 181.94 101.77 182.28L101.68 182.85L101.5 183.85C101.5 184.03 101.43 184.21 101.4 184.39L101.19 185.39C101.19 185.56 101.12 185.73 101.08 185.9C101 186.25 100.92 186.6 100.83 186.96C100.811 187.054 100.788 187.148 100.76 187.24C97.9304 198.348 91.5761 208.239 82.6499 215.43L56.6499 236.43L55.8599 235.51L54.7899 234.19C53.0689 231.964 51.5685 229.576 50.3099 227.06C45.8298 218.065 44.6461 207.784 46.9648 198.007C49.2835 188.23 54.9579 179.575 62.9999 173.55V173.38L63.1699 173.25L94.9999 147.56C98.5419 153.583 100.844 160.254 101.77 167.18C102.08 169.531 102.234 171.899 102.23 174.27Z" fill="url(#paint3_linear_833_6238)"/>
<g style="mix-blend-mode:soft-light">
<path d="M23.4699 189C9.5699 170.39 11.3399 147.15 27.7799 130.74C55.9999 107.41 84.9999 84 114.05 61.83C87.0499 85.83 58.7399 109.55 30.8199 132.58C29.843 133.392 28.9334 134.281 28.0999 135.24C14.0999 151.17 13.1899 170.68 23.4699 188.95V189Z" fill="white"/>
</g>
<g style="mix-blend-mode:soft-light">
<path d="M6.63005 108.67C1.14005 95.67 3.89005 80.38 11.2601 68.6C15.6476 61.4048 21.2744 55.0433 27.8801 49.81C44.8801 35.94 61.9401 22.25 79.7001 9.37C63.6401 24.33 46.8901 38.49 30.0001 52.49C25.7947 55.8095 21.9712 59.586 18.6001 63.75C8.07005 76.25 2.27005 92.44 6.60005 108.67H6.63005Z" fill="white"/>
</g>
<g style="mix-blend-mode:soft-light">
<path d="M94.4 153.74C99.86 171.34 96.66 192.74 83.95 206.53C82.1254 208.483 80.116 210.254 77.95 211.82C80.4713 208.83 82.7644 205.654 84.81 202.32C93.51 187.78 95.56 170.43 94.35 153.74H94.4Z" fill="white"/>
</g>
</g>
<defs>
<linearGradient id="paint0_linear_833_6238" x1="4.47987" y1="147.42" x2="94.0099" y2="230.91" gradientUnits="userSpaceOnUse">
<stop offset="0.23" stop-color="#092429"/>
<stop offset="0.33" stop-color="#1C6D7A"/>
<stop offset="0.54" stop-color="#2692A3"/>
<stop offset="0.8" stop-color="#2FB6CC"/>
</linearGradient>
<linearGradient id="paint1_linear_833_6238" x1="0.549982" y1="198.51" x2="158.59" y2="65.9" gradientUnits="userSpaceOnUse">
<stop offset="0.02" stop-color="#1C6D7A"/>
<stop offset="0.19" stop-color="#2692A3"/>
<stop offset="0.51" stop-color="#59C5D6"/>
<stop offset="0.76" stop-color="#82D3E0"/>
</linearGradient>
<linearGradient id="paint2_linear_833_6238" x1="-20.93" y1="115.81" x2="108.98" y2="6.79" gradientUnits="userSpaceOnUse">
<stop offset="0.02" stop-color="#134952"/>
<stop offset="0.2" stop-color="#1C6D7A"/>
<stop offset="0.52" stop-color="#2692A3"/>
<stop offset="0.77" stop-color="#2FB6CC"/>
</linearGradient>
<linearGradient id="paint3_linear_833_6238" x1="54.4999" y1="264.36" x2="96.0199" y2="109.38" gradientUnits="userSpaceOnUse">
<stop offset="0.15" stop-color="#1C6D7A"/>
<stop offset="0.17" stop-color="#2692A3"/>
<stop offset="0.43" stop-color="#2FB6CC"/>
<stop offset="0.63" stop-color="#59C5D6"/>
<stop offset="0.73" stop-color="#82D3E0"/>
</linearGradient>
<clipPath id="clip0_833_6238">
<rect width="125.96" height="236.49" fill="white"/>
</clipPath>
</defs>
</svg>
